<svg width="294" height="246" xmlns="http://www.w3.org/2000/svg" xmlns:xlink="http://www.w3.org/1999/xlink" overflow="hidden"><defs><clipPath id="clip0"><rect x="346" y="287" width="294" height="246"/></clipPath><clipPath id="clip1"><rect x="352" y="338" width="288" height="147"/></clipPath><clipPath id="clip2"><rect x="352" y="338" width="589" height="147"/></clipPath></defs><g clip-path="url(#clip0)" transform="translate(-346 -287)"><g clip-path="url(#clip1)"><g clip-path="url(#clip2)"><path d="M299.844 5.22813C299.375 4.20335 300.001 3.16119 301.199 3.16119L306.844 3.16119C307.487 3.16119 308.043 3.63016 308.199 4.02965L325.69 43.3709 326.159 43.3709 343.65 4.02965C343.806 3.63016 344.292 3.16119 345.004 3.16119L350.649 3.16119C351.848 3.16119 352.473 4.18598 352.004 5.22813L327.6 58.7253C327.357 59.1942 326.888 59.5937 326.246 59.5937L325.447 59.5937C324.891 59.5937 324.335 59.1942 324.092 58.7253L299.844 5.22813Z" fill="#FFFFFF" transform="matrix(1.00225 0 0 1 352.227 338.992)"/><path d="M363.989 4.67231C363.989 3.87333 364.701 3.16119 365.5 3.16119L370.745 3.16119C371.544 3.16119 372.257 3.87333 372.257 4.67231L372.257 57.2836C372.257 58.0826 371.544 58.7947 370.745 58.7947L365.5 58.7947C364.701 58.7947 363.989 58.0826 363.989 57.2836L363.989 4.67231Z" fill="#FFFFFF" transform="matrix(1.00225 0 0 1 352.227 338.992)"/><path d="M388.063 50.7702C388.775 49.7454 389.417 48.5469 390.13 47.5048 390.842 46.48 391.953 46.15 392.839 46.8621 393.308 47.2616 399.439 52.3508 405.553 52.3508 411.042 52.3508 414.533 49.0159 414.533 44.9515 414.533 40.1749 410.399 37.1701 402.531 33.9047 394.42 30.4829 388.063 26.2796 388.063 17.0566 388.063 10.8557 392.839 2.34484 405.467 2.34484 413.422 2.34484 419.379 6.47871 420.178 7.03452 420.821 7.43402 421.446 8.54564 420.647 9.74412 420.005 10.6994 419.292 11.8111 418.667 12.7664 418.024 13.7911 417 14.2775 415.888 13.5653 415.332 13.2527 409.774 9.5878 405.154 9.5878 398.484 9.5878 396.174 13.8085 396.174 16.7439 396.174 21.2773 399.665 24.0563 406.266 26.7659 415.489 30.5003 423.357 34.8773 423.357 44.5694 423.357 52.8371 415.958 59.5937 405.64 59.5937 395.948 59.5937 389.817 54.5045 388.549 53.3234 387.837 52.6808 387.281 52.125 388.063 50.7702Z" fill="#FFFFFF" transform="matrix(1.00225 0 0 1 352.227 338.992)"/><path d="M437.582 4.67231C437.582 3.87333 438.294 3.16119 439.093 3.16119L444.426 3.16119C445.294 3.16119 445.937 3.87333 445.937 4.67231L445.937 37.5001C445.937 45.4552 451.026 51.656 459.137 51.656 467.318 51.656 472.494 45.542 472.494 37.6738L472.494 4.67231C472.494 3.87333 473.137 3.16119 474.005 3.16119L479.338 3.16119C480.137 3.16119 480.849 3.87333 480.849 4.67231L480.849 38.0559C480.849 50.1449 471.713 59.5937 459.155 59.5937 446.684 59.5937 437.617 50.1275 437.617 38.0559L437.617 4.67231Z" fill="#FFFFFF" transform="matrix(1.00225 0 0 1 352.227 338.992)"/><path d="M491.305 56.7278 515.709 3.23067C515.952 2.7617 516.664 2.36221 517.064 2.36221L517.863 2.36221C518.262 2.36221 518.974 2.7617 519.217 3.23067L543.465 56.7278C543.934 57.7526 543.308 58.7947 542.11 58.7947L537.108 58.7947C536.152 58.7947 535.596 58.3258 535.284 57.5963L530.351 46.7058 504.367 46.7058C502.769 50.3533 501.101 53.9314 499.521 57.5963 499.278 58.1521 498.652 58.7947 497.697 58.7947L492.695 58.7947C491.461 58.7947 490.836 57.7699 491.305 56.7278ZM527.311 39.8797 517.533 18.0987 517.133 18.0987 507.441 39.8797 527.311 39.8797Z" fill="#FFFFFF" transform="matrix(1.00225 0 0 1 352.227 338.992)"/><path d="M555.363 4.67231C555.363 3.87333 556.005 3.16119 556.874 3.16119L562.119 3.16119C562.918 3.16119 563.63 3.87333 563.63 4.67231L563.63 51.4128 585.168 51.4128C586.037 51.4128 586.679 52.125 586.679 52.9239L586.679 57.301C586.679 58.1 586.037 58.8121 585.168 58.8121L556.874 58.8121C556.005 58.8121 555.363 58.1 555.363 57.301L555.363 4.67231Z" fill="#FFFFFF" transform="matrix(1.00225 0 0 1 352.227 338.992)"/><path d="M305.264 75.9208C305.264 75.3649 305.698 74.8786 306.306 74.8786L309.919 74.8786C310.474 74.8786 310.961 75.3649 310.961 75.9208L310.961 108.141 325.811 108.141C326.419 108.141 326.854 108.627 326.854 109.183L326.854 112.188C326.854 112.743 326.419 113.23 325.811 113.23L306.306 113.23C305.698 113.23 305.264 112.743 305.264 112.188L305.264 75.9208Z" fill="#FFFFFF" transform="matrix(1.00225 0 0 1 352.227 338.992)"/><path d="M331.891 111.806 348.704 74.9307C348.86 74.6007 349.364 74.3228 349.642 74.3228L350.198 74.3228C350.476 74.3228 350.962 74.6007 351.136 74.9307L367.845 111.806C368.175 112.518 367.741 113.23 366.907 113.23L363.45 113.23C362.79 113.23 362.408 112.9 362.182 112.413L358.778 104.91 340.87 104.91C339.776 107.428 338.63 109.895 337.536 112.413 337.379 112.796 336.928 113.23 336.268 113.23L332.811 113.23C331.995 113.23 331.561 112.518 331.891 111.806ZM356.711 100.186 349.972 85.1785 349.694 85.1785 343.007 100.186 356.711 100.186Z" fill="#FFFFFF" transform="matrix(1.00225 0 0 1 352.227 338.992)"/><path d="M376.043 75.9208C376.043 75.3649 376.477 74.8786 377.085 74.8786L389.348 74.8786C395.983 74.8786 400.742 79.2556 400.742 85.0048 400.742 89.2256 397.616 92.2304 395.045 93.7068 397.946 94.9053 401.888 97.5975 401.888 102.635 401.888 108.766 396.851 113.212 389.938 113.212L377.068 113.212C376.46 113.212 376.026 112.726 376.026 112.17L376.026 75.9208ZM389.904 108.193C393.239 108.193 395.827 105.622 395.827 102.218 395.827 98.8828 392.648 96.4685 389.087 96.4685L381.584 96.4685 381.584 108.193 389.904 108.193ZM389.035 91.5357C392.544 91.5357 394.68 88.965 394.68 85.6823 394.68 82.3474 392.544 80.0373 389.035 80.0373L381.636 80.0373 381.636 91.5357 389.035 91.5357Z" fill="#FFFFFF" transform="matrix(1.00225 0 0 1 352.227 338.992)"/><path d="M410.399 107.689C410.886 106.977 411.337 106.161 411.824 105.448 412.31 104.736 413.092 104.51 413.682 105.014 414.012 105.292 418.233 108.801 422.454 108.801 426.24 108.801 428.637 106.508 428.637 103.711 428.637 100.429 425.788 98.3444 420.369 96.1038 414.776 93.7416 410.399 90.8409 410.399 84.4838 410.399 80.211 413.682 74.3575 422.401 74.3575 427.873 74.3575 431.989 77.2061 432.528 77.5882 432.962 77.8661 433.396 78.6304 432.858 79.4467 432.424 80.1067 431.92 80.871 431.486 81.531 431.051 82.2431 430.339 82.5732 429.575 82.0868 429.193 81.861 425.354 79.3425 422.176 79.3425 417.573 79.3425 415.992 82.2431 415.992 84.2753 415.992 87.4018 418.407 89.3124 422.957 91.1709 429.314 93.7416 434.734 96.7638 434.734 103.434 434.734 109.131 429.644 113.786 422.523 113.786 415.836 113.786 411.615 110.277 410.747 109.461 410.226 109.009 409.844 108.627 410.399 107.689Z" fill="#FFFFFF" transform="matrix(1.00225 0 0 1 352.227 338.992)"/><path d="M283.726 70.8837C283.031 69.6505 281.728 68.8862 280.321 68.8862L257.828 68.8862 257.828 3.90807C257.828 1.75429 256.074 0 253.92 0L142.341 0C142.236 0 142.149 0.0173692 142.063 0.0347384 141.958 0.0347384 141.854 0.0521076 141.75 0.0694768 141.542 0.104215 141.333 0.156323 141.142 0.2258 141.09 0.243169 141.021 0.243169 140.968 0.260538L73.1243 26.0191 5.29761 0.260538C4.09913-0.20843 2.74433-0.0347384 1.68481 0.694768 0.625291 1.42427 0 2.62275 0 3.90807L0 115.47C0 117.086 1.00741 118.545 2.51853 119.118L71.7348 145.415C71.7869 145.432 71.839 145.45 71.8911 145.467 71.9606 145.484 72.0127 145.502 72.0822 145.519 72.4296 145.606 72.7769 145.675 73.1243 145.675 73.1243 145.675 73.1243 145.675 73.1243 145.675 73.1243 145.675 73.1243 145.675 73.1243 145.675 73.4717 145.675 73.8191 145.606 74.1665 145.519 74.2359 145.502 74.2881 145.484 74.3575 145.467 74.4096 145.45 74.4617 145.45 74.5139 145.415L143.07 119.378 253.92 119.378C254.233 119.378 254.528 119.326 254.823 119.257 254.91 119.24 254.98 119.205 255.067 119.187 255.275 119.118 255.484 119.048 255.675 118.944 255.761 118.91 255.831 118.857 255.918 118.805 256.126 118.684 256.3 118.545 256.491 118.388 256.543 118.336 256.595 118.302 256.647 118.267 256.856 118.058 257.047 117.815 257.22 117.572 257.238 117.555 257.255 117.537 257.255 117.52L283.656 74.8439C284.368 73.6454 284.403 72.1169 283.726 70.8837ZM69.2162 136.105 7.81614 112.778 7.81614 9.57043 69.2162 32.8973 69.2162 136.105ZM138.432 112.778 77.0324 136.105 77.0324 32.8973 138.432 9.57043 138.432 112.778ZM146.249 7.81614 249.995 7.81614 249.995 72.7769 249.995 111.545 146.249 111.545 146.249 7.81614ZM257.811 101.714 257.811 76.685 273.287 76.685 257.811 101.714Z" fill="#D90038" transform="matrix(1.00225 0 0 1 352.227 338.992)"/></g></g></g></svg>